<svg xmlns="http://www.w3.org/2000/svg" viewBox="0 0 100 100" width="200" height="200">
  <!-- Spiral/circular flock pattern -->
  
  <!-- Center bird -->
  <g transform="translate(42,42)">
    <polygon points="12,0 24,10 12,15 0,10" fill="#6366f1"/>
    <polygon points="24,10 32,7 28,13" fill="#4f46e5"/>
    <polygon points="0,10 -8,7 -4,13" fill="#8b5cf6"/>
  </g>
  
  <!-- Ring 1 -->
  <g transform="translate(20,30)">
    <polygon points="10,0 20,8 10,12 0,8" fill="#7c3aed"/>
    <polygon points="20,8 26,5 23,10" fill="#6366f1"/>
    <polygon points="0,8 -6,5 -3,10" fill="#8b5cf6"/>
  </g>
  <g transform="translate(62,28)">
    <polygon points="10,0 20,8 10,12 0,8" fill="#8b5cf6"/>
    <polygon points="20,8 26,5 23,10" fill="#7c3aed"/>
    <polygon points="0,8 -6,5 -3,10" fill="#6366f1"/>
  </g>
  <g transform="translate(25,58)">
    <polygon points="10,0 20,8 10,12 0,8" fill="#8b5cf6"/>
    <polygon points="20,8 26,5 23,10" fill="#6366f1"/>
    <polygon points="0,8 -6,5 -3,10" fill="#7c3aed"/>
  </g>
  <g transform="translate(60,55)">
    <polygon points="10,0 20,8 10,12 0,8" fill="#6366f1"/>
    <polygon points="20,8 26,5 23,10" fill="#8b5cf6"/>
    <polygon points="0,8 -6,5 -3,10" fill="#7c3aed"/>
  </g>
  
  <!-- Ring 2 - outer -->
  <g transform="translate(5,18)" opacity="0.8">
    <polygon points="8,0 16,6 8,9 0,6" fill="#a78bfa"/>
    <polygon points="16,6 20,4 18,7" fill="#8b5cf6"/>
  </g>
  <g transform="translate(45,8)" opacity="0.8">
    <polygon points="8,0 16,6 8,9 0,6" fill="#7c3aed"/>
    <polygon points="16,6 20,4 18,7" fill="#6366f1"/>
  </g>
  <g transform="translate(78,22)" opacity="0.8">
    <polygon points="8,0 16,6 8,9 0,6" fill="#6366f1"/>
    <polygon points="16,6 20,4 18,7" fill="#7c3aed"/>
  </g>
  <g transform="translate(82,50)" opacity="0.8">
    <polygon points="8,0 16,6 8,9 0,6" fill="#8b5cf6"/>
  </g>
  <g transform="translate(75,75)" opacity="0.8">
    <polygon points="8,0 16,6 8,9 0,6" fill="#7c3aed"/>
  </g>
  <g transform="translate(45,80)" opacity="0.8">
    <polygon points="8,0 16,6 8,9 0,6" fill="#6366f1"/>
  </g>
  <g transform="translate(10,70)" opacity="0.8">
    <polygon points="8,0 16,6 8,9 0,6" fill="#a78bfa"/>
  </g>
  <g transform="translate(2,45)" opacity="0.8">
    <polygon points="8,0 16,6 8,9 0,6" fill="#8b5cf6"/>
  </g>
</svg>
