<svg xmlns="http://www.w3.org/2000/svg" viewBox="0 0 100 100" width="200" height="200">
  <defs>
    <linearGradient id="octoGrad" x1="0%" y1="0%" x2="100%" y2="100%">
      <stop offset="0%" style="stop-color:#6366f1"/>
      <stop offset="100%" style="stop-color:#8b5cf6"/>
    </linearGradient>
  </defs>
  <!-- Head - hexagonal -->
  <polygon points="50,10 75,25 75,50 50,60 25,50 25,25" fill="url(#octoGrad)"/>
  <!-- Eyes -->
  <circle cx="38" cy="35" r="6" fill="#ffffff"/>
  <circle cx="62" cy="35" r="6" fill="#ffffff"/>
  <circle cx="40" cy="35" r="3" fill="#1e1b4b"/>
  <circle cx="64" cy="35" r="3" fill="#1e1b4b"/>
  <!-- Tentacles - angular paths -->
  <polygon points="25,50 10,70 20,65 25,75 30,60" fill="#7c3aed"/>
  <polygon points="30,58 15,85 25,78 35,90 38,65" fill="#6366f1"/>
  <polygon points="42,62 35,95 45,88 50,95 50,68" fill="#8b5cf6"/>
  <polygon points="58,62 65,95 55,88 50,95 50,68" fill="#8b5cf6"/>
  <polygon points="70,58 85,85 75,78 65,90 62,65" fill="#6366f1"/>
  <polygon points="75,50 90,70 80,65 75,75 70,60" fill="#7c3aed"/>
</svg>
